<svg xmlns="http://www.w3.org/2000/svg" width="287.767" height="47.013"><defs><clipPath id="a"><path data-name="Rectangle 2259" fill="none" d="M0 0h287.767v47.013H0z"/></clipPath></defs><path data-name="Rectangle 2258" fill="#dcbf9e" d="M21.719.639h1.858v1.858h-1.858z"/><g data-name="Groupe 3076"><g data-name="Groupe 3075" clip-path="url(#a)"><path data-name="Tracé 9366" d="M0 29.117a11.673 11.673 0 0 0 .916 4.368 11.61 11.61 0 0 0 6.226 6.225 11.731 11.731 0 0 0 4.645.919 11.321 11.321 0 0 0 4.523-.918 12.532 12.532 0 0 0 3.755-2.5 11.772 11.772 0 0 0 2.57-3.727 11.468 11.468 0 0 0 .942-4.642V4.979h-1.858v23.86a9.79 9.79 0 0 1-.8 3.948 10.244 10.244 0 0 1-2.134 3.151 9.591 9.591 0 0 1-3.155 2.088 10.355 10.355 0 0 1-7.693 0 9.608 9.608 0 0 1-3.156-2.088 10.248 10.248 0 0 1-2.133-3.151 9.706 9.706 0 0 1-.792-3.671z" fill="#dcbf9e"/><path data-name="Tracé 9367" d="M26.585 18.98v16.134a11.838 11.838 0 1 0 11.79-11.79 11.456 11.456 0 0 0-5.327 1.3 12.018 12.018 0 0 0-4.106 3.421l-.5.661V18.98zm11.79 26.065a9.536 9.536 0 0 1-3.852-.8 10.062 10.062 0 0 1-5.284-5.284 9.724 9.724 0 0 1 0-7.7 10.062 10.062 0 0 1 5.284-5.284 9.77 9.77 0 0 1 7.7 0 10.075 10.075 0 0 1 5.283 5.284 9.711 9.711 0 0 1 0 7.7 10.065 10.065 0 0 1-5.283 5.284 9.54 9.54 0 0 1-3.852.8" fill="#dcbf9e"/><path data-name="Tracé 9368" d="m52.761 38.255.024 1.665.832-.012a4.539 4.539 0 0 0 1.713-.377 4.2 4.2 0 0 0 2.562-3.237l.031-.167.164-.049a4.354 4.354 0 0 0-.368-8.434l-.326-.057v-3.851h3.859l.041.23a4.344 4.344 0 0 0 8.443.457l.049-.165.169-.031a4.272 4.272 0 0 0 3.588-4.318 4.335 4.335 0 0 0-3.583-4.248l-.165-.031-.05-.161a4.283 4.283 0 0 0-2.113-2.6 4.419 4.419 0 0 0-2.8-.456c-1.8.261-2.974 1.449-3.475 3.53l-.051.213h-3.906v-3.847l.229-.041a4.275 4.275 0 0 0 2.515-1.438 4.168 4.168 0 0 0 1.037-2.481c.158-2.107-.829-3.53-3.108-4.477l-.141-.059-.026-.151a4.184 4.184 0 0 0-1.045-2.191A4.236 4.236 0 0 0 52.278.224a4.17 4.17 0 0 0-2.955 3.382l-.033.167-.164.046a4.307 4.307 0 0 0-3.087 4.65 4.247 4.247 0 0 0 3.578 3.795l.232.04v3.9l-3.912-.017-.05-.213a6.038 6.038 0 0 0-.412-1.269 4.261 4.261 0 0 0-4.548-2.286 4.321 4.321 0 0 0-3.459 3.048l-.05.167-.172.028a4.336 4.336 0 0 0-3.582 4.458l.018.831 1.665-.035-.018-.832a2.645 2.645 0 0 1 2.393-2.8 1.305 1.305 0 0 0 1.295-1.158 2.639 2.639 0 0 1 2.148-2.063 2.543 2.543 0 0 1 2.811 1.36 5.29 5.29 0 0 1 .327 1.082l.033.163a2.959 2.959 0 0 0 .36 1.183h2.354q1.652.005 3.3.016a1.14 1.14 0 0 0 .836-.316 1.22 1.22 0 0 0 .325-.914v-5.879l-.763-.065a8.22 8.22 0 0 0-.431-.028 2.677 2.677 0 0 1-.509-5.3 1.285 1.285 0 0 0 1.111-1.244A2.694 2.694 0 0 1 55.636 2.6a2.8 2.8 0 0 1 .681 1.861l.033.553.523.184c2.583.902 2.723 1.992 2.644 3.028a2.5 2.5 0 0 1-.63 1.51 2.737 2.737 0 0 1-2.289.944l-.865-.033v7.178h7l.1-.72c.334-2.455 1.37-2.914 2.236-3.04a2.753 2.753 0 0 1 1.77.273 2.8 2.8 0 0 1 1.447 2.209l.106.669.957.044a2.659 2.659 0 0 1 2.525 2.647 2.613 2.613 0 0 1-2.5 2.72 1.227 1.227 0 0 0-1.177 1.088 2.679 2.679 0 0 1-5.306-.453c0-.118-.017-.235-.032-.35l-.092-.841h-7.039v7.055l.758.068c.118.01.232.017.346.025h.08a3.17 3.17 0 0 1 .461.05 2.629 2.629 0 0 1 2.152 2.569 2.6 2.6 0 0 1-2.108 2.694 1.328 1.328 0 0 0-1.133 1.268 2.562 2.562 0 0 1-1.607 2.2 2.876 2.876 0 0 1-1.084.244zm-8.1-20.408h-.024.049a.083.083 0 0 0-.025 0" fill="#dcbf9e"/><path data-name="Tracé 9369" d="M125.689 47.013a3.309 3.309 0 0 1-1.511-.355 2.837 2.837 0 0 1-1.127-1.012l.588-.684a2.859 2.859 0 0 0 .914.875 2.255 2.255 0 0 0 1.149.3q1.777 0 1.778-2.1v-5.8h-3.5v-.875h4.5v6.629a3.224 3.224 0 0 1-.7 2.27 2.728 2.728 0 0 1-2.086.751" fill="#9f8c7b"/><path data-name="Tracé 9370" d="M134.699 46.997a3.982 3.982 0 0 1-1.969-.472 3.414 3.414 0 0 1-1.325-1.3 3.7 3.7 0 0 1-.479-1.893 3.813 3.813 0 0 1 .457-1.886 3.394 3.394 0 0 1 1.257-1.291 3.474 3.474 0 0 1 1.8-.472 3.518 3.518 0 0 1 1.8.457 3.265 3.265 0 0 1 1.236 1.286 3.915 3.915 0 0 1 .452 1.907 1.257 1.257 0 0 1-.007.144 1.419 1.419 0 0 0-.006.157h-6.248v-.724h5.728l-.384.286a2.834 2.834 0 0 0-.335-1.387 2.471 2.471 0 0 0-.909-.949 2.549 2.549 0 0 0-1.326-.342 2.6 2.6 0 0 0-1.326.342 2.374 2.374 0 0 0-.915.956 2.954 2.954 0 0 0-.328 1.408v.152a2.818 2.818 0 0 0 .359 1.444 2.523 2.523 0 0 0 1.012.97 3.076 3.076 0 0 0 1.484.349 3.193 3.193 0 0 0 1.222-.232 2.519 2.519 0 0 0 .978-.711l.547.628a3.066 3.066 0 0 1-1.2.876 4.054 4.054 0 0 1-1.579.3m-1.162-8.365 1.872-1.7h1.3l-2.216 1.7z" fill="#9f8c7b"/><path data-name="Tracé 9371" d="M140.247 46.93v-7.177h.929v1.955l-.1-.342a2.365 2.365 0 0 1 1.012-1.25 3.349 3.349 0 0 1 1.764-.431v.944a.9.9 0 0 1-.11-.008.879.879 0 0 0-.11-.007 2.31 2.31 0 0 0-1.777.69 2.772 2.772 0 0 0-.643 1.962v3.663z" fill="#9f8c7b"/><path data-name="Tracé 9372" d="M148.998 46.997a3.689 3.689 0 0 1-1.874-.472 3.447 3.447 0 0 1-1.3-1.3 3.983 3.983 0 0 1 0-3.786 3.452 3.452 0 0 1 1.3-1.286 4.023 4.023 0 0 1 3.766.008 3.445 3.445 0 0 1 1.3 1.284 3.708 3.708 0 0 1 .472 1.893 3.752 3.752 0 0 1-.472 1.893 3.407 3.407 0 0 1-1.3 1.3 3.768 3.768 0 0 1-1.886.472m0-.861a2.693 2.693 0 0 0 1.379-.349 2.493 2.493 0 0 0 .951-.983 3.286 3.286 0 0 0 0-2.946 2.5 2.5 0 0 0-.951-.978 2.847 2.847 0 0 0-2.734 0 2.554 2.554 0 0 0-.956.978 3.23 3.23 0 0 0 0 2.946 2.556 2.556 0 0 0 .951.983 2.628 2.628 0 0 0 1.36.349m-2.257-7.5 1.764-1.7h.983l1.763 1.7h-.9l-1.736-1.45h.765l-1.736 1.45z" fill="#9f8c7b"/><path data-name="Tracé 9373" d="M163.952 39.685a3.276 3.276 0 0 1 1.524.335 2.352 2.352 0 0 1 1.012 1.018 3.662 3.662 0 0 1 .361 1.722v4.169h-.97v-4.072a2.44 2.44 0 0 0-.54-1.717 1.98 1.98 0 0 0-1.524-.581 2.547 2.547 0 0 0-1.279.308 2.075 2.075 0 0 0-.833.888 3.061 3.061 0 0 0-.294 1.4v3.773h-.971v-4.071a2.421 2.421 0 0 0-.547-1.717 2 2 0 0 0-1.531-.581 2.557 2.557 0 0 0-1.272.308 2.064 2.064 0 0 0-.84.888 3.075 3.075 0 0 0-.294 1.4v3.773h-.97v-7.175h.929v1.942l-.15-.343a2.568 2.568 0 0 1 1.06-1.222 3.256 3.256 0 0 1 1.728-.445 3.015 3.015 0 0 1 1.791.526 2.465 2.465 0 0 1 .956 1.579l-.382-.151a2.834 2.834 0 0 1 1.114-1.414 3.355 3.355 0 0 1 1.922-.54" fill="#9f8c7b"/><path data-name="Tracé 9374" d="M172.872 47a3.985 3.985 0 0 1-1.969-.472 3.414 3.414 0 0 1-1.325-1.3 3.713 3.713 0 0 1-.479-1.893 3.8 3.8 0 0 1 .458-1.886 3.378 3.378 0 0 1 1.257-1.291 3.711 3.711 0 0 1 3.6-.015 3.268 3.268 0 0 1 1.237 1.286 3.928 3.928 0 0 1 .452 1.907c0 .046 0 .094-.007.144s-.007.1-.007.157h-6.247v-.72h5.73l-.382.287a2.832 2.832 0 0 0-.336-1.387 2.454 2.454 0 0 0-.909-.949 2.545 2.545 0 0 0-1.325-.342 2.593 2.593 0 0 0-1.326.342 2.359 2.359 0 0 0-.916.956 2.938 2.938 0 0 0-.329 1.408v.151a2.812 2.812 0 0 0 .362 1.442 2.529 2.529 0 0 0 1.013.971 3.087 3.087 0 0 0 1.482.349 3.2 3.2 0 0 0 1.223-.232 2.547 2.547 0 0 0 .978-.711l.547.628a3.083 3.083 0 0 1-1.2.875 4.06 4.06 0 0 1-1.58.3" fill="#9f8c7b"/><path data-name="Tracé 9375" d="M182.556 46.93v-9.568h4.128a4.158 4.158 0 0 1 2.481.642 2.12 2.12 0 0 1 .882 1.819 2.288 2.288 0 0 1-.362 1.313 2.252 2.252 0 0 1-.985.806 3.345 3.345 0 0 1-1.359.274l.232-.328a4.057 4.057 0 0 1 1.578.28 2.283 2.283 0 0 1 1.033.834 2.422 2.422 0 0 1 .369 1.375 2.221 2.221 0 0 1-.9 1.886 4.5 4.5 0 0 1-2.7.669zm1.011-.833h3.377a3.568 3.568 0 0 0 1.927-.431 1.73 1.73 0 0 0 0-2.734 3.568 3.568 0 0 0-1.927-.43l-3.487.002v-.835h3.158a3.114 3.114 0 0 0 1.783-.437 1.651 1.651 0 0 0 0-2.6 3.161 3.161 0 0 0-1.783-.431h-3.048z" fill="#9f8c7b"/><path data-name="Tracé 9376" d="M197.059 47.013a3.9 3.9 0 0 1-2.886-1.054 4.228 4.228 0 0 1-1.051-3.117v-5.48h1.012v5.44a3.528 3.528 0 0 0 .765 2.5 3.312 3.312 0 0 0 4.333 0 3.528 3.528 0 0 0 .766-2.5v-5.44h.983v5.484a4.241 4.241 0 0 1-1.046 3.117 3.867 3.867 0 0 1-2.877 1.054" fill="#9f8c7b"/><path data-name="Tracé 9377" d="M207.012 47.013a6.05 6.05 0 0 1-2.044-.349 3.917 3.917 0 0 1-1.511-.9l.4-.78a4.024 4.024 0 0 0 1.36.827 4.859 4.859 0 0 0 1.8.335 4.034 4.034 0 0 0 1.47-.225 1.777 1.777 0 0 0 .833-.609 1.449 1.449 0 0 0 .267-.848 1.266 1.266 0 0 0-.321-.9 2.236 2.236 0 0 0-.841-.541 9.293 9.293 0 0 0-1.149-.347q-.628-.151-1.257-.321a5.372 5.372 0 0 1-1.155-.458 2.384 2.384 0 0 1-.846-.758 2.151 2.151 0 0 1-.321-1.237 2.389 2.389 0 0 1 .376-1.306 2.628 2.628 0 0 1 1.154-.957 4.763 4.763 0 0 1 2-.362 5.764 5.764 0 0 1 1.6.226 4.642 4.642 0 0 1 1.368.621l-.342.807a4.521 4.521 0 0 0-1.306-.6 4.971 4.971 0 0 0-1.333-.191 3.759 3.759 0 0 0-1.421.232 1.81 1.81 0 0 0-.827.622 1.525 1.525 0 0 0-.266.882 1.257 1.257 0 0 0 .321.9 2.127 2.127 0 0 0 .846.534 10.856 10.856 0 0 0 1.155.342q.63.149 1.25.327a5.876 5.876 0 0 1 1.149.458 2.372 2.372 0 0 1 .848.745 2.1 2.1 0 0 1 .321 1.218 2.336 2.336 0 0 1-.384 1.291 2.676 2.676 0 0 1-1.168.957 4.846 4.846 0 0 1-2.017.362" fill="#9f8c7b"/><path data-name="Tracé 9378" d="M215.76 47.013a6.05 6.05 0 0 1-2.044-.349 3.917 3.917 0 0 1-1.511-.9l.4-.78a4.024 4.024 0 0 0 1.36.827 4.86 4.86 0 0 0 1.8.335 4.034 4.034 0 0 0 1.47-.225 1.777 1.777 0 0 0 .833-.609 1.449 1.449 0 0 0 .267-.848 1.266 1.266 0 0 0-.321-.9 2.236 2.236 0 0 0-.841-.541 9.3 9.3 0 0 0-1.149-.347q-.628-.151-1.257-.321a5.372 5.372 0 0 1-1.155-.458 2.384 2.384 0 0 1-.846-.758 2.151 2.151 0 0 1-.321-1.237 2.39 2.39 0 0 1 .376-1.306 2.628 2.628 0 0 1 1.154-.957 4.763 4.763 0 0 1 2-.362 5.764 5.764 0 0 1 1.6.226 4.642 4.642 0 0 1 1.368.621l-.342.807a4.521 4.521 0 0 0-1.315-.594 4.971 4.971 0 0 0-1.333-.191 3.759 3.759 0 0 0-1.421.232 1.81 1.81 0 0 0-.827.622 1.525 1.525 0 0 0-.266.882 1.257 1.257 0 0 0 .321.9 2.127 2.127 0 0 0 .846.534 10.858 10.858 0 0 0 1.155.342q.63.149 1.25.327a5.876 5.876 0 0 1 1.149.458 2.372 2.372 0 0 1 .848.745 2.1 2.1 0 0 1 .321 1.218 2.336 2.336 0 0 1-.384 1.291 2.676 2.676 0 0 1-1.168.957 4.846 4.846 0 0 1-2.017.362" fill="#9f8c7b"/><path data-name="Tracé 9379" d="M222.882 46.056h5.756v.874h-6.767v-9.568h6.561v.875h-5.551zm-.11-4.417h5.058v.861h-5.058z" fill="#9f8c7b"/><path data-name="Tracé 9380" d="M233.216 46.931v-8.695h-3.363v-.874h7.737v.874h-3.363v8.694z" fill="#9f8c7b"/><path data-name="Tracé 9381" d="M94.605 4.165a10.939 10.939 0 0 1 11 11v11h-2.2v-4.4a11.172 11.172 0 0 1-3.828 3.19 10.643 10.643 0 0 1-4.972 1.21 10.908 10.908 0 0 1-11-11 10.911 10.911 0 0 1 11-11m0 19.8a8.4 8.4 0 0 0 3.411-.7 8.927 8.927 0 0 0 4.686-4.686 8.613 8.613 0 0 0 0-6.82 8.938 8.938 0 0 0-4.686-4.686 8.613 8.613 0 0 0-6.82 0 8.938 8.938 0 0 0-4.686 4.686 8.613 8.613 0 0 0 0 6.82 8.927 8.927 0 0 0 4.686 4.686 8.392 8.392 0 0 0 3.41.7" fill="#9f8c7b"/><path data-name="Tracé 9382" d="M108.245.204h2.2v2.2h-2.2zm0 3.96h2.2v22h-2.2z" fill="#9f8c7b"/><path data-name="Tracé 9383" d="M124.084 4.165a10.287 10.287 0 0 1 4.224.88 11.562 11.562 0 0 1 5.9 5.9 10.3 10.3 0 0 1 .88 4.224v11h-2.2v-11a8.42 8.42 0 0 0-.7-3.411 8.938 8.938 0 0 0-4.686-4.686 8.613 8.613 0 0 0-6.82 0 8.938 8.938 0 0 0-4.686 4.686 8.42 8.42 0 0 0-.7 3.411v11h-2.2v-11a10.521 10.521 0 0 1 .858-4.224 11.591 11.591 0 0 1 2.332-3.5 10.916 10.916 0 0 1 3.476-2.4 10.651 10.651 0 0 1 4.333-.88" fill="#9f8c7b"/><path data-name="Tracé 9384" d="M159.722 15.165a10.651 10.651 0 0 1-.88 4.333 10.9 10.9 0 0 1-2.4 3.478 11.574 11.574 0 0 1-3.5 2.331 10.494 10.494 0 0 1-4.224.858 10.911 10.911 0 0 1-11-11V.864h2.2v7.7h5.94v2.2h-5.936v4.4a8.411 8.411 0 0 0 .7 3.41 8.927 8.927 0 0 0 4.686 4.686 8.613 8.613 0 0 0 6.82 0 8.927 8.927 0 0 0 4.686-4.686 8.411 8.411 0 0 0 .7-3.41z" fill="#9f8c7b"/><path data-name="Tracé 9385" d="M162.365.204h2.2v2.2h-2.2zm0 3.96h2.2v22h-2.2z" fill="#9f8c7b"/><path data-name="Tracé 9386" d="M198.005 4.165a10.939 10.939 0 0 1 11 11v11h-2.2v-11a8.421 8.421 0 0 0-.7-3.411 8.938 8.938 0 0 0-4.686-4.686 8.613 8.613 0 0 0-6.82 0 8.938 8.938 0 0 0-4.686 4.686 8.4 8.4 0 0 0-.7 3.411v11h-2.2v-11a8.4 8.4 0 0 0-.7-3.411 8.927 8.927 0 0 0-4.686-4.686 8.61 8.61 0 0 0-6.819 0 8.927 8.927 0 0 0-4.686 4.686 8.4 8.4 0 0 0-.7 3.411v11h-2.2v-11a10.681 10.681 0 0 1 .879-4.312 10.845 10.845 0 0 1 2.4-3.5 11.583 11.583 0 0 1 3.5-2.331 10.5 10.5 0 0 1 4.224-.859 10.718 10.718 0 0 1 3.146.463 10.869 10.869 0 0 1 2.794 1.3 11.748 11.748 0 0 1 2.268 1.958 10.944 10.944 0 0 1 1.673 2.442 10.6 10.6 0 0 1 1.692-2.442 11.99 11.99 0 0 1 2.333-1.959 11.3 11.3 0 0 1 2.793-1.3 10.351 10.351 0 0 1 3.08-.463" fill="#9f8c7b"/><path data-name="Tracé 9387" d="M211.646.204h2.2v2.2h-2.2zm0 3.96h2.2v22h-2.2z" fill="#9f8c7b"/><path data-name="Tracé 9388" d="M219.829 7.399a3.477 3.477 0 0 0-1.145 2.707 3.907 3.907 0 0 0 3.96 3.96h9.9a5.783 5.783 0 0 1 2.31.462 5.97 5.97 0 0 1 3.167 3.167 5.793 5.793 0 0 1 .463 2.311 6.216 6.216 0 0 1-1.738 4.312 6.425 6.425 0 0 1-1.892 1.342 5.368 5.368 0 0 1-2.31.506h-16.06v-2.2h16.06a3.555 3.555 0 0 0 2.618-1.144 3.864 3.864 0 0 0 1.123-2.816 3.512 3.512 0 0 0-1.123-2.707 3.741 3.741 0 0 0-2.618-1.033h-9.9a5.853 5.853 0 0 1-2.441-.507 6.563 6.563 0 0 1-1.959-1.341 5.916 5.916 0 0 1-1.3-1.959 6.124 6.124 0 0 1-.463-2.353 5.807 5.807 0 0 1 1.76-4.2 6.107 6.107 0 0 1 1.959-1.275 6.332 6.332 0 0 1 2.441-.463h15.843v2.2h-15.839a4.046 4.046 0 0 0-2.816 1.034" fill="#9f8c7b"/><path data-name="Tracé 9389" d="M263.126 15.165a10.652 10.652 0 0 1-.88 4.333 10.9 10.9 0 0 1-2.4 3.478 11.574 11.574 0 0 1-3.5 2.331 10.494 10.494 0 0 1-4.224.858 10.911 10.911 0 0 1-11-11V.864h2.2v7.7h5.94v2.2h-5.94v4.4a8.411 8.411 0 0 0 .7 3.41 8.927 8.927 0 0 0 4.686 4.686 8.613 8.613 0 0 0 6.82 0 8.927 8.927 0 0 0 4.686-4.686 8.411 8.411 0 0 0 .7-3.41z" fill="#9f8c7b"/><path data-name="Tracé 9390" d="M276.766 23.965a8.5 8.5 0 0 0 4.972-1.5 8.745 8.745 0 0 0 3.169-4h2.419a11.443 11.443 0 0 1-1.606 3.08 11.13 11.13 0 0 1-2.421 2.419 11.92 11.92 0 0 1-3.058 1.607 10.338 10.338 0 0 1-3.476.593 10.908 10.908 0 0 1-11-11 11 11 0 1 1 22 0v1.1h-19.8a9.415 9.415 0 0 0 1.034 3.08 8.5 8.5 0 0 0 1.958 2.419 9.636 9.636 0 0 0 2.662 1.607 8.355 8.355 0 0 0 3.146.593m0-17.6a8.334 8.334 0 0 0-3.146.594 9.633 9.633 0 0 0-2.662 1.606 8.413 8.413 0 0 0-1.958 2.442 9.653 9.653 0 0 0-1.034 3.059h17.6a9.71 9.71 0 0 0-1.034-3.059 8.432 8.432 0 0 0-1.958-2.442 9.543 9.543 0 0 0-2.684-1.606 8.394 8.394 0 0 0-3.124-.594" fill="#9f8c7b"/><path data-name="Tracé 9391" d="M244.138 42.097c-.326.051-.641.087-.948.151a3.023 3.023 0 0 0-1.309.536 1.017 1.017 0 0 0-.336 1.262 1.067 1.067 0 0 0 1.249.714 2.2 2.2 0 0 0 .686-.324 4.827 4.827 0 0 0 1.161-1.249c.023-.032.048-.06.075-.093l.238.135c-.132.346-.269.669-.379 1a2.66 2.66 0 0 0-.138 1.391 1.126 1.126 0 0 0 2.173.045 2.192 2.192 0 0 0-.061-1.2c-.124-.415-.284-.819-.435-1.245l.237-.126c.031.043.058.085.089.122.2.25.39.51.605.747a2.6 2.6 0 0 0 1.121.782 1.156 1.156 0 0 0 1.428-1.265 1.2 1.2 0 0 0-.728-.9 3.8 3.8 0 0 0-1.155-.368c-.265-.045-.532-.077-.794-.114v-.271c.3-.043.585-.076.87-.129a3.161 3.161 0 0 0 1.361-.527.993.993 0 0 0 .424-1.091 1.153 1.153 0 0 0-.87-.92 1.191 1.191 0 0 0-.867.17 3.736 3.736 0 0 0-1.1.994c-.135.167-.26.341-.4.522-.086-.051-.167-.1-.25-.145.1-.252.213-.493.306-.74a3.3 3.3 0 0 0 .259-1.32 1.129 1.129 0 1 0-2.255-.1 3.223 3.223 0 0 0 .222 1.324c.1.281.222.553.336.837l-.252.145c-.037-.051-.064-.092-.1-.13-.213-.265-.415-.541-.645-.792a2.388 2.388 0 0 0-1.081-.734 1.063 1.063 0 0 0-1.284.573 1.039 1.039 0 0 0 .237 1.357 2.771 2.771 0 0 0 1.286.549c.333.068.671.11 1.014.164zm-1.937-.129a2.054 2.054 0 0 1-1.232-1.205 1.748 1.748 0 0 1 1.376-2.149 2.211 2.211 0 0 1 1.537.488 5.225 5.225 0 0 1 .007-.791 1.582 1.582 0 0 1 1.67-1.369 1.6 1.6 0 0 1 1.643 1.68v.452c.2-.11.394-.231.6-.325a1.572 1.572 0 0 1 1.8.32 1.681 1.681 0 0 1 .423 1.828 1.96 1.96 0 0 1-1 .979l-.18.088c.593.3 1.136.629 1.271 1.327a1.681 1.681 0 0 1-.269 1.277 1.556 1.556 0 0 1-1.248.76 2.052 2.052 0 0 1-1.422-.5 5.758 5.758 0 0 1-.006.781 1.666 1.666 0 0 1-3.31-.2c-.009-.179 0-.36 0-.568-.059.036-.106.064-.154.1a2.1 2.1 0 0 1-1.069.4 1.688 1.688 0 0 1-1.7-1.427 1.634 1.634 0 0 1 .857-1.726c.122-.075.252-.137.4-.217" fill="#aa0019"/></g></g></svg>