<?xml version="1.0" encoding="UTF-8"?>
<svg id="Calque_1" xmlns="http://www.w3.org/2000/svg" viewBox="0 0 212.98 130.18">
  <defs>
    <style>
      .cls-1 {
        fill: #ba1823;
      }

      .cls-2 {
        fill: #e1caae;
      }

      .cls-3 {
        fill: #ad9d8d;
      }
    </style>
  </defs>
  <g>
    <path id="j" class="cls-3" d="M43.9,130.18c-.56,0-1.09-.12-1.58-.37-.49-.25-.88-.6-1.18-1.05l.61-.71c.28.4.59.7.96.91s.76.31,1.2.31c1.24,0,1.85-.73,1.85-2.2v-6.05h-3.65v-.91h4.69v6.92c0,1.05-.25,1.84-.73,2.37-.49.52-1.21.78-2.17.78Z"/>
    <path id="e" class="cls-3" d="M53.3,130.17c-.78,0-1.46-.16-2.05-.49-.59-.33-1.05-.78-1.38-1.35-.33-.58-.5-1.23-.5-1.97s.16-1.4.48-1.97.76-1.02,1.31-1.35c.56-.33,1.18-.49,1.88-.49s1.33.16,1.88.48c.55.32.98.77,1.29,1.34s.47,1.24.47,1.99c0,.05,0,.1,0,.15,0,.05,0,.11,0,.16h-6.52v-.76h5.98l-.4.3c0-.54-.12-1.02-.35-1.45-.23-.42-.55-.75-.95-.99s-.86-.36-1.38-.36-.97.12-1.38.36-.73.57-.96,1c-.23.43-.34.92-.34,1.47v.16c0,.57.13,1.07.38,1.5s.6.77,1.06,1.01c.45.24.97.36,1.55.36.46,0,.88-.08,1.28-.24.39-.16.73-.41,1.02-.74l.57.66c-.33.4-.75.7-1.25.91-.5.21-1.05.31-1.65.31ZM52.09,121.44l1.95-1.77h1.36l-2.31,1.77h-1Z"/>
    <path id="r" class="cls-3" d="M59.09,130.1v-7.49h.97v2.04l-.1-.36c.21-.57.56-1,1.06-1.3s1.11-.45,1.84-.45v.98s-.08,0-.11,0-.08,0-.11,0c-.79,0-1.41.24-1.85.72-.45.48-.67,1.16-.67,2.05v3.82h-1.01Z"/>
    <path id="o" class="cls-3" d="M68.21,130.17c-.73,0-1.38-.16-1.95-.49-.57-.33-1.02-.78-1.35-1.36-.33-.58-.5-1.24-.5-1.97s.17-1.41.5-1.98c.33-.57.78-1.02,1.35-1.34.57-.32,1.22-.48,1.95-.48s1.4.16,1.97.49,1.03.77,1.35,1.34c.33.57.49,1.22.49,1.98s-.16,1.4-.49,1.97-.78,1.03-1.36,1.35c-.58.33-1.24.49-1.97.49ZM68.21,129.27c.54,0,1.02-.12,1.44-.36.42-.24.75-.58.99-1.03.24-.44.36-.95.36-1.53s-.12-1.1-.36-1.54-.57-.78-.99-1.02c-.42-.24-.89-.36-1.43-.36s-1.01.12-1.43.36c-.42.24-.75.58-1,1.02-.25.44-.37.95-.37,1.54s.12,1.09.37,1.53c.25.44.58.78.99,1.03.41.24.89.36,1.42.36ZM65.86,121.44l1.84-1.77h1.03l1.84,1.77h-.94l-1.81-1.51h.8l-1.81,1.51h-.94Z"/>
    <path id="m" class="cls-3" d="M83.81,122.54c.61,0,1.14.12,1.59.35.45.23.8.59,1.06,1.06.25.48.38,1.07.38,1.8v4.35h-1.01v-4.25c0-.79-.19-1.39-.56-1.79-.38-.4-.91-.61-1.59-.61-.51,0-.96.11-1.33.32-.38.21-.67.52-.87.93-.21.4-.31.89-.31,1.46v3.94h-1.01v-4.25c0-.79-.19-1.39-.57-1.79-.38-.4-.91-.61-1.6-.61-.5,0-.95.11-1.33.32-.38.21-.67.52-.88.93-.2.4-.31.89-.31,1.46v3.94h-1.01v-7.49h.97v2.03l-.16-.36c.23-.54.6-.97,1.11-1.28.51-.31,1.11-.46,1.8-.46.73,0,1.35.18,1.87.55.51.37.85.92,1,1.65l-.4-.16c.22-.61.61-1.1,1.16-1.48.56-.38,1.22-.56,2-.56Z"/>
    <path id="e-2" class="cls-3" d="M93.13,130.17c-.78,0-1.46-.16-2.05-.49-.59-.33-1.05-.78-1.38-1.35-.33-.58-.5-1.23-.5-1.97s.16-1.4.48-1.97.76-1.02,1.31-1.35c.56-.33,1.18-.49,1.88-.49s1.33.16,1.88.48c.55.32.98.77,1.29,1.34s.47,1.24.47,1.99c0,.05,0,.1,0,.15,0,.05,0,.11,0,.16h-6.52v-.76h5.98l-.4.3c0-.54-.12-1.02-.35-1.45-.23-.42-.55-.75-.95-.99s-.86-.36-1.38-.36-.97.12-1.38.36-.73.57-.96,1c-.23.43-.34.92-.34,1.47v.16c0,.57.13,1.07.38,1.5s.6.77,1.06,1.01c.45.24.97.36,1.55.36.46,0,.88-.08,1.28-.24.39-.16.73-.41,1.02-.74l.57.66c-.33.4-.75.7-1.25.91-.5.21-1.05.31-1.65.31Z"/>
    <path id="b" class="cls-3" d="M103.22,130.1v-9.98h4.31c1.11,0,1.97.22,2.59.67s.92,1.08.92,1.9c0,.54-.13,1-.38,1.37s-.59.65-1.03.84c-.43.19-.91.29-1.42.29l.24-.34c.64,0,1.19.1,1.65.29.46.2.82.49,1.08.87s.38.86.38,1.43c0,.85-.31,1.5-.93,1.97-.62.47-1.56.7-2.82.7h-4.59ZM104.28,129.23h3.52c.88,0,1.54-.15,2.01-.45.47-.3.7-.78.7-1.43s-.23-1.12-.7-1.42-1.14-.45-2.01-.45h-3.64v-.87h3.29c.8,0,1.42-.15,1.86-.46.44-.3.66-.76.66-1.35s-.22-1.06-.66-1.36c-.44-.3-1.06-.45-1.86-.45h-3.18v8.24Z"/>
    <path id="u" class="cls-3" d="M118.35,130.18c-1.27,0-2.28-.37-3.01-1.1s-1.1-1.82-1.1-3.25v-5.72h1.06v5.67c0,1.18.27,2.05.8,2.61.53.56,1.28.84,2.25.84s1.73-.28,2.27-.84c.53-.56.8-1.43.8-2.61v-5.67h1.03v5.72c0,1.44-.36,2.52-1.09,3.25-.73.73-1.73,1.1-3,1.1Z"/>
    <path id="s" class="cls-3" d="M128.73,130.18c-.74,0-1.45-.12-2.13-.36-.68-.24-1.21-.55-1.58-.93l.41-.81c.35.34.82.63,1.42.86.59.23,1.22.35,1.88.35s1.14-.08,1.53-.24.68-.37.87-.63c.19-.27.28-.56.28-.88,0-.39-.11-.7-.33-.94-.22-.24-.52-.42-.88-.56-.36-.14-.76-.26-1.2-.36s-.87-.22-1.31-.33-.84-.28-1.21-.48c-.37-.2-.66-.46-.88-.79-.22-.33-.33-.76-.33-1.29,0-.49.13-.95.39-1.36.26-.41.66-.75,1.21-1s1.24-.38,2.08-.38c.56,0,1.12.08,1.67.24.55.16,1.03.37,1.43.65l-.36.84c-.43-.29-.88-.49-1.36-.63-.48-.13-.94-.2-1.39-.2-.6,0-1.09.08-1.48.24-.39.16-.68.38-.86.65-.19.27-.28.58-.28.92,0,.39.11.7.33.94.22.24.52.42.88.56.37.13.77.25,1.21.36s.87.22,1.3.34c.43.12.83.28,1.2.48.37.2.66.45.88.78s.33.75.33,1.27c0,.48-.13.93-.4,1.35-.27.41-.67.75-1.22,1-.55.25-1.25.38-2.1.38Z"/>
    <path id="s-2" class="cls-3" d="M137.86,130.18c-.74,0-1.45-.12-2.13-.36-.68-.24-1.21-.55-1.58-.93l.41-.81c.35.34.82.63,1.42.86.59.23,1.22.35,1.88.35s1.14-.08,1.53-.24.68-.37.87-.63c.19-.27.28-.56.28-.88,0-.39-.11-.7-.33-.94-.22-.24-.52-.42-.88-.56-.36-.14-.76-.26-1.2-.36s-.87-.22-1.31-.33c-.44-.12-.84-.28-1.21-.48-.37-.2-.66-.46-.88-.79-.22-.33-.33-.76-.33-1.29,0-.49.13-.95.39-1.36.26-.41.66-.75,1.21-1s1.24-.38,2.08-.38c.56,0,1.12.08,1.67.24.55.16,1.03.37,1.43.65l-.36.84c-.43-.29-.88-.49-1.36-.63-.48-.13-.94-.2-1.39-.2-.6,0-1.09.08-1.48.24-.39.16-.68.38-.86.65-.19.27-.28.58-.28.92,0,.39.11.7.33.94.22.24.52.42.88.56.37.13.77.25,1.21.36s.87.22,1.3.34c.43.12.83.28,1.2.48.37.2.66.45.88.78s.33.75.33,1.27c0,.48-.13.93-.4,1.35-.27.41-.67.75-1.22,1-.55.25-1.25.38-2.1.38Z"/>
    <path id="e-3" class="cls-3" d="M145.29,129.19h6v.91h-7.06v-9.98h6.84v.91h-5.79v8.16ZM145.17,124.58h5.28v.9h-5.28v-.9Z"/>
    <path id="t" class="cls-3" d="M156.07,130.1v-9.07h-3.51v-.91h8.07v.91h-3.51v9.07h-1.05Z"/>
  </g>
  <g>
    <path id="a" class="cls-3" d="M11.47,85.49c1.59,0,3.09.3,4.5.9,1.41.6,2.62,1.41,3.65,2.43s1.84,2.24,2.43,3.65.9,2.91.9,4.5v11.47h-2.29v-4.59c-1.04,1.38-2.37,2.49-3.99,3.33-1.62.84-3.35,1.26-5.19,1.26-1.62,0-3.13-.3-4.52-.89-1.39-.6-2.6-1.41-3.63-2.43-1.03-1.03-1.84-2.23-2.43-3.63-.6-1.39-.9-2.9-.9-4.52s.3-3.09.9-4.5,1.41-2.62,2.43-3.65c1.02-1.03,2.23-1.84,3.63-2.43,1.39-.6,2.9-.9,4.52-.9ZM11.47,106.14c1.25,0,2.44-.24,3.56-.73,1.12-.49,2.09-1.15,2.92-1.97s1.48-1.8,1.97-2.92c.49-1.12.73-2.3.73-3.56s-.25-2.44-.73-3.56c-.49-1.12-1.15-2.09-1.97-2.91-.83-.83-1.8-1.48-2.92-1.97-1.12-.49-2.3-.73-3.56-.73s-2.44.25-3.56.73c-1.12.49-2.09,1.15-2.92,1.97-.83.83-1.48,1.8-1.97,2.91-.49,1.12-.73,2.3-.73,3.56s.25,2.44.73,3.56c.49,1.12,1.15,2.09,1.97,2.92s1.8,1.48,2.92,1.97c1.12.49,2.3.73,3.56.73Z"/>
    <path id="i" class="cls-3" d="M25.7,83.65v-2.29h2.29v2.29h-2.29ZM25.7,108.44v-22.95h2.29v22.95h-2.29Z"/>
    <path id="n" class="cls-3" d="M42.23,85.49c1.56,0,3.03.31,4.41.92,1.38.61,2.59,1.45,3.65,2.5s1.89,2.27,2.5,3.65c.61,1.38.92,2.85.92,4.41v11.47h-2.29v-11.47c0-1.25-.25-2.44-.73-3.56-.49-1.12-1.15-2.09-1.97-2.91-.83-.83-1.8-1.48-2.92-1.97-1.12-.49-2.3-.73-3.56-.73s-2.44.25-3.56.73c-1.12.49-2.09,1.15-2.92,1.97-.83.83-1.48,1.8-1.97,2.91-.49,1.12-.73,2.3-.73,3.56v11.47h-2.29v-11.47c0-1.56.3-3.03.9-4.41s1.41-2.59,2.43-3.65c1.02-1.06,2.23-1.89,3.63-2.5,1.39-.61,2.9-.92,4.52-.92Z"/>
    <path id="t-2" class="cls-3" d="M79.41,96.96c0,1.62-.31,3.13-.92,4.52-.61,1.39-1.45,2.6-2.5,3.63s-2.27,1.84-3.65,2.43-2.85.89-4.41.89-3.13-.3-4.52-.89c-1.39-.6-2.6-1.41-3.63-2.43-1.03-1.03-1.84-2.23-2.43-3.63-.6-1.39-.9-2.9-.9-4.52v-14.92h2.29v8.03h6.2v2.3h-6.2v4.59c0,1.25.25,2.44.73,3.56.49,1.12,1.15,2.09,1.97,2.92s1.8,1.48,2.92,1.97c1.12.49,2.3.73,3.56.73s2.44-.24,3.56-.73c1.12-.49,2.09-1.15,2.92-1.97s1.48-1.8,1.97-2.92c.49-1.12.73-2.3.73-3.56h2.29Z"/>
    <path id="i-2" class="cls-3" d="M82.16,83.65v-2.29h2.29v2.29h-2.29ZM82.16,108.44v-22.95h2.29v22.95h-2.29Z"/>
    <path id="m-2" class="cls-3" d="M119.34,85.49c1.59,0,3.09.3,4.5.9,1.41.6,2.62,1.41,3.65,2.43s1.84,2.24,2.43,3.65.9,2.91.9,4.5v11.47h-2.29v-11.47c0-1.25-.25-2.44-.73-3.56-.49-1.12-1.15-2.09-1.97-2.91-.83-.83-1.8-1.48-2.92-1.97-1.12-.49-2.3-.73-3.56-.73s-2.44.25-3.56.73c-1.12.49-2.09,1.15-2.92,1.97-.83.83-1.48,1.8-1.97,2.91-.49,1.12-.73,2.3-.73,3.56v11.47h-2.3v-11.47c0-1.25-.25-2.44-.73-3.56-.49-1.12-1.15-2.09-1.97-2.91-.83-.83-1.8-1.48-2.92-1.97-1.12-.49-2.3-.73-3.56-.73s-2.44.25-3.56.73c-1.12.49-2.09,1.15-2.92,1.97-.83.83-1.48,1.8-1.97,2.91-.49,1.12-.73,2.3-.73,3.56v11.47h-2.29v-11.47c0-1.59.31-3.09.92-4.5.61-1.41,1.45-2.62,2.5-3.65s2.27-1.84,3.65-2.43,2.85-.9,4.41-.9c1.13,0,2.23.16,3.28.48s2.03.77,2.92,1.35c.89.58,1.68,1.26,2.39,2.04.7.78,1.29,1.63,1.74,2.55.46-.92,1.05-1.77,1.77-2.55s1.53-1.46,2.43-2.04c.9-.58,1.87-1.03,2.91-1.35s2.11-.48,3.21-.48Z"/>
    <path id="i-3" class="cls-3" d="M133.57,83.65v-2.29h2.29v2.29h-2.29ZM133.57,108.44v-22.95h2.29v22.95h-2.29Z"/>
    <path id="s-3" class="cls-3" d="M142.1,88.86c-.8.72-1.19,1.66-1.19,2.82s.4,2.14,1.19,2.94,1.77,1.19,2.94,1.19h10.33c.86,0,1.66.16,2.41.48s1.41.77,1.97,1.33c.57.57,1.01,1.22,1.33,1.97.32.75.48,1.55.48,2.41s-.16,1.68-.48,2.46-.76,1.46-1.33,2.04c-.57.58-1.22,1.05-1.97,1.4s-1.55.53-2.41.53h-16.75v-2.29h16.75c1.04,0,1.95-.4,2.73-1.19.78-.79,1.17-1.77,1.17-2.94s-.39-2.1-1.17-2.82c-.78-.72-1.69-1.08-2.73-1.08h-10.33c-.92,0-1.77-.18-2.55-.53-.78-.35-1.46-.82-2.04-1.4-.58-.58-1.03-1.26-1.35-2.04s-.48-1.6-.48-2.46.16-1.66.48-2.41.77-1.41,1.35-1.97c.58-.57,1.26-1.01,2.04-1.33s1.63-.48,2.55-.48h16.52v2.29h-16.52c-1.16,0-2.14.36-2.94,1.08Z"/>
    <path id="t-3" class="cls-3" d="M187.27,96.96c0,1.62-.31,3.13-.92,4.52-.61,1.39-1.45,2.6-2.5,3.63s-2.27,1.84-3.65,2.43-2.85.89-4.41.89-3.13-.3-4.52-.89c-1.39-.6-2.6-1.41-3.63-2.43-1.03-1.03-1.84-2.23-2.43-3.63-.6-1.39-.9-2.9-.9-4.52v-14.92h2.29v8.03h6.2v2.3h-6.2v4.59c0,1.25.25,2.44.73,3.56.49,1.12,1.15,2.09,1.97,2.92s1.8,1.48,2.92,1.97c1.12.49,2.3.73,3.56.73s2.44-.24,3.56-.73c1.12-.49,2.09-1.15,2.92-1.97s1.48-1.8,1.97-2.92c.49-1.12.73-2.3.73-3.56h2.29Z"/>
    <path id="e-4" class="cls-3" d="M201.5,106.14c1.96,0,3.69-.52,5.19-1.56,1.5-1.04,2.6-2.43,3.3-4.18h2.52c-.4,1.16-.96,2.23-1.68,3.21-.72.98-1.56,1.82-2.52,2.52-.96.7-2.03,1.26-3.19,1.68-1.16.41-2.37.62-3.63.62-1.62,0-3.13-.3-4.52-.89-1.39-.6-2.6-1.41-3.63-2.43-1.03-1.03-1.84-2.23-2.43-3.63-.6-1.39-.9-2.9-.9-4.52s.3-3.09.9-4.5,1.41-2.62,2.43-3.65c1.02-1.03,2.23-1.84,3.63-2.43,1.39-.6,2.9-.9,4.52-.9s3.09.3,4.5.9c1.41.6,2.62,1.41,3.65,2.43s1.84,2.24,2.43,3.65.9,2.91.9,4.5v1.15h-20.66c.18,1.16.54,2.23,1.08,3.21.54.98,1.22,1.82,2.04,2.52.83.7,1.75,1.26,2.78,1.68,1.02.41,2.12.62,3.28.62ZM201.5,87.78c-1.16,0-2.26.21-3.28.62-1.03.41-1.95.97-2.78,1.67-.83.71-1.51,1.55-2.04,2.55-.54,1-.9,2.06-1.08,3.19h18.36c-.18-1.13-.54-2.2-1.08-3.19-.54-.99-1.22-1.84-2.04-2.55-.83-.7-1.76-1.26-2.8-1.67-1.04-.41-2.13-.62-3.26-.62Z"/>
  </g>
  <g>
    <g id="j-2">
      <path class="cls-2" d="M85.68,3.68h2.74V.94h-2.74v2.74Z"/>
      <path class="cls-2" d="M53.67,42.92c.05,2.29.5,4.46,1.35,6.44.9,2.1,2.14,3.95,3.68,5.49,1.55,1.55,3.39,2.78,5.49,3.68,2.1.9,4.4,1.35,6.85,1.35s4.59-.46,6.67-1.35c2.08-.9,3.94-2.14,5.53-3.69,1.59-1.54,2.86-3.39,3.79-5.49.92-2.1,1.39-4.4,1.39-6.84V7.34h-2.74v35.16c0,2.08-.39,4.04-1.17,5.82-.78,1.77-1.83,3.33-3.15,4.64s-2.88,2.35-4.65,3.08c-3.55,1.46-7.79,1.46-11.34,0-1.77-.73-3.34-1.76-4.65-3.08-1.31-1.31-2.37-2.88-3.14-4.64-.73-1.66-1.12-3.48-1.17-5.41h-2.74Z"/>
    </g>
    <g id="b-2">
      <path class="cls-2" d="M92.85,27.98v23.78c0,2.45.46,4.75,1.35,6.85.9,2.1,2.14,3.95,3.68,5.49,1.54,1.54,3.39,2.78,5.49,3.68,2.1.9,4.4,1.35,6.85,1.35s4.69-.46,6.81-1.35c2.12-.9,3.98-2.14,5.53-3.68,1.54-1.54,2.78-3.39,3.68-5.49.9-2.09,1.35-4.4,1.35-6.85s-.46-4.69-1.36-6.81c-.9-2.12-2.14-3.98-3.68-5.53-1.55-1.55-3.41-2.79-5.53-3.68-2.12-.9-4.41-1.36-6.81-1.36-2.77,0-5.41.64-7.85,1.91-2.45,1.27-4.49,2.97-6.05,5.04l-.74.97v-14.33h-2.74ZM110.23,66.39c-1.99,0-3.9-.4-5.68-1.17-1.77-.77-3.33-1.83-4.64-3.14-1.31-1.31-2.37-2.88-3.14-4.64-.78-1.77-1.17-3.68-1.17-5.68s.39-3.9,1.17-5.68c.78-1.77,1.83-3.33,3.14-4.64,1.31-1.31,2.87-2.37,4.64-3.14,3.55-1.55,7.8-1.56,11.36,0,1.77.78,3.33,1.84,4.64,3.15,1.31,1.31,2.37,2.87,3.14,4.64.78,1.78,1.17,3.69,1.17,5.68s-.39,3.9-1.17,5.68c-.77,1.77-1.83,3.33-3.14,4.64-1.31,1.31-2.87,2.37-4.64,3.14-1.78.78-3.69,1.17-5.68,1.17Z"/>
    </g>
    <g id="croix">
      <path class="cls-2" d="M131.43,56.38l.03,2.45,1.23-.02c.83-.01,1.68-.2,2.52-.56,2.05-.88,3.36-2.53,3.78-4.77l.05-.25.24-.07c2.81-.83,4.6-3.29,4.58-6.27-.03-3-2.13-5.53-5.12-6.16l-.48-.08v-5.68h5.69l.06.34c.5,2.82,2.82,4.97,5.64,5.24,3.13.28,5.94-1.59,6.81-4.56l.07-.24.25-.04c3.16-.57,5.29-3.13,5.29-6.36,0-3.07-2.22-5.7-5.28-6.26l-.24-.04-.07-.24c-.53-1.71-1.58-3-3.11-3.83-1.23-.66-2.62-.89-4.12-.67-2.66.38-4.38,2.13-5.12,5.2l-.08.31h-5.76v-5.68l.34-.06c1.46-.27,2.71-.98,3.71-2.12.91-1.04,1.42-2.27,1.53-3.66.23-3.11-1.22-5.2-4.58-6.6l-.21-.09-.04-.22c-.22-1.29-.73-2.35-1.54-3.23-1.83-1.98-4.23-2.63-6.75-1.84-2.36.74-3.87,2.47-4.35,4.99l-.05.25-.24.07c-2.99.85-4.86,3.67-4.55,6.85.28,2.86,2.4,5.1,5.28,5.59l.34.06v5.74s-5.76-.02-5.76-.02l-.07-.31c-.14-.6-.31-1.24-.61-1.87-1.18-2.45-3.81-3.77-6.7-3.37-2.37.34-4.42,2.14-5.1,4.49l-.07.25-.25.04c-3.13.52-5.35,3.28-5.28,6.57l.03,1.23,2.45-.05-.03-1.23c-.05-2.21,1.44-3.95,3.53-4.13,1.08-.1,1.7-.65,1.91-1.69.3-1.54,1.63-2.82,3.17-3.04,1.86-.27,3.41.48,4.14,2,.22.45.34.98.48,1.59l.05.24c.25,1.27.43,1.64.53,1.74h3.47c1.62,0,3.25.01,4.87.02.63,0,1.02-.25,1.23-.47.48-.48.48-1.09.48-1.35,0-2.37,0-7.39,0-7.54v-1.13l-1.12-.09c-.2-.02-.47-.04-.64-.04-2.05-.06-3.68-1.52-3.87-3.47-.21-2.15,1.07-3.94,3.12-4.34,1.27-.25,1.54-1.11,1.64-1.83.23-1.79,1.13-2.9,2.73-3.41,1.64-.51,3.02-.13,4.21,1.17.63.68.94,1.52,1.01,2.74l.05.82.77.27c3.8,1.33,4.01,2.94,3.89,4.46-.06.85-.37,1.58-.93,2.22-.86.98-1.96,1.44-3.37,1.39l-1.27-.05v10.58h10.32l.14-1.06c.49-3.62,2.02-4.29,3.3-4.48,1.01-.14,1.83-.01,2.61.4,1.2.65,1.88,1.68,2.13,3.26l.16.99,1.41.06c2.13.15,3.72,1.83,3.72,3.9,0,2.23-1.45,3.8-3.69,4.01-.96.09-1.55.63-1.73,1.6-.4,2.06-2.17,3.36-4.32,3.16-1.95-.18-3.46-1.83-3.51-3.83,0-.17-.02-.35-.05-.52l-.13-1.24h-10.38v10.4l1.12.1c.17.01.34.02.51.04h.12c.23.02.46.03.68.08,1.88.4,3.16,1.92,3.17,3.79.02,2.02-1.17,3.54-3.11,3.97-1.01.22-1.54.82-1.67,1.87-.19,1.56-.99,2.65-2.37,3.24-.55.23-1.08.35-1.6.36l-1.23.02ZM119.49,26.3s-.02,0-.04,0h.07s-.02,0-.04,0Z"/>
    </g>
  </g>
  <path id="michelin" class="cls-1" d="M167.46,125.05c-.34.05-.67.09-.99.16-.49.1-.96.24-1.36.56-.43.34-.56.81-.35,1.32.23.57.75.88,1.3.75.25-.06.5-.19.72-.34.5-.34.86-.82,1.21-1.3.02-.03.05-.06.08-.1.09.05.18.1.25.14-.14.36-.28.7-.4,1.04-.15.47-.25.95-.14,1.45.12.55.53.88,1.12.89.59.01,1.01-.29,1.15-.84.11-.42.06-.85-.06-1.25-.13-.43-.3-.86-.45-1.3.06-.03.15-.08.25-.13.03.04.06.09.09.13.21.26.41.53.63.78.33.36.7.66,1.17.82.92.29,1.58-.64,1.49-1.32-.06-.46-.38-.73-.76-.93-.38-.2-.79-.31-1.21-.38-.28-.05-.55-.08-.83-.12v-.28c.31-.04.61-.08.91-.13.51-.1,1-.23,1.42-.55.38-.29.56-.66.44-1.14-.12-.49-.41-.84-.91-.96-.32-.08-.62.02-.9.18-.46.25-.82.63-1.14,1.04-.14.17-.27.36-.41.54-.09-.05-.18-.1-.26-.15.11-.26.22-.51.32-.77.17-.44.29-.9.27-1.38-.02-.42-.14-.8-.52-1.04-.79-.5-1.78,0-1.84.93-.03.48.07.94.23,1.38.11.29.23.58.35.87-.09.05-.17.1-.26.15-.04-.05-.07-.1-.1-.14-.22-.28-.43-.56-.67-.83-.31-.34-.67-.63-1.13-.77-.55-.16-1.06.07-1.34.6-.28.52-.19,1.05.25,1.42.39.33.86.47,1.34.57.35.07.7.11,1.06.17v.28ZM165.44,124.92c-.57-.29-1.1-.61-1.29-1.26-.12-.44-.07-.86.14-1.26.27-.54.7-.89,1.3-.98.59-.09,1.1.18,1.6.51,0-.3-.03-.57,0-.83.14-.89.85-1.45,1.74-1.43,1.03.03,1.69.7,1.71,1.75,0,.16,0,.31,0,.47.21-.11.41-.24.63-.34.66-.3,1.37-.17,1.88.33.53.52.71,1.29.44,1.91-.21.48-.58.8-1.04,1.02-.05.03-.11.05-.19.09.62.31,1.19.66,1.33,1.38.09.48-.01.93-.28,1.33-.31.47-.73.76-1.3.79-.55.03-1.03-.16-1.48-.52,0,.29.03.56,0,.81-.12.91-.89,1.52-1.81,1.46-.96-.07-1.59-.7-1.64-1.67,0-.19,0-.37,0-.59-.06.04-.11.07-.16.1-.34.22-.7.4-1.12.42-.86.03-1.63-.62-1.77-1.49-.12-.74.19-1.37.89-1.8.13-.08.26-.14.42-.23"/>
</svg>