<?xml version="1.0" encoding="UTF-8"?>
<svg id="Calque_1" xmlns="http://www.w3.org/2000/svg" version="1.1" viewBox="0 0 212.9 162.5">
  <!-- Generator: Adobe Illustrator 29.2.0, SVG Export Plug-In . SVG Version: 2.1.0 Build 108)  -->
  <defs>
    <style>
      .st0 {
        fill: #fff;
      }

      .st1 {
        fill: #bb1823;
      }

      .st2 {
        fill: #e1cbaf;
      }
    </style>
  </defs>
  <g>
    <path class="st0" d="M50.9,130.3c-.6,0-1.1-.1-1.6-.4-.5-.2-.9-.6-1.2-1.1l.6-.7c.3.4.6.7,1,.9s.8.3,1.2.3c1.2,0,1.9-.7,1.9-2.2v-6h-3.7v-.9h4.7v6.9c0,1.1-.2,1.8-.7,2.4-.5.5-1.2.8-2.2.8Z"/>
    <path class="st0" d="M60.3,130.3c-.8,0-1.5-.2-2.1-.5s-1.1-.8-1.4-1.4c-.3-.6-.5-1.2-.5-2s.2-1.4.5-2,.8-1,1.3-1.3c.6-.3,1.2-.5,1.9-.5s1.3.2,1.9.5c.5.3,1,.8,1.3,1.3s.5,1.2.5,2,0,0,0,.1v.2h-6.5v-.8h6l-.4.3c0-.5,0-1-.3-1.4-.2-.4-.5-.8-.9-1s-.9-.4-1.4-.4-1,.1-1.4.4-.7.6-1,1c-.2.4-.3.9-.3,1.5v.2c0,.6,0,1.1.4,1.5s.6.8,1.1,1,1,.4,1.5.4.9,0,1.3-.2.7-.4,1-.7l.6.7c-.3.4-.7.7-1.2.9s-1,.3-1.6.3h-.3ZM59.1,121.6l2-1.8h1.4l-2.3,1.8h-1.1Z"/>
    <path class="st0" d="M66.1,130.2v-7.5h1v2-.4c0-.6.5-1,1-1.3s1.1-.4,1.8-.4v1h-.2c-.8,0-1.4.2-1.9.7-.4.5-.7,1.2-.7,2v3.8h-1Z"/>
    <path class="st0" d="M75.2,130.3c-.7,0-1.4-.2-2-.5s-1-.8-1.4-1.4c-.3-.6-.5-1.2-.5-2s.2-1.4.5-2,.8-1,1.4-1.3,1.2-.5,2-.5,1.4.2,2,.5,1,.8,1.4,1.3c.3.6.5,1.2.5,2s-.2,1.4-.5,2-.8,1-1.4,1.4c-.6.3-1.2.5-2,.5ZM75.2,129.4c.5,0,1-.1,1.4-.4.4-.2.7-.6,1-1,.2-.4.4-1,.4-1.5s0-1.1-.4-1.5-.6-.8-1-1-.9-.4-1.4-.4-1,.1-1.4.4c-.4.2-.8.6-1,1s-.4,1-.4,1.5,0,1.1.4,1.5c.2.4.6.8,1,1s.9.4,1.4.4ZM72.8,121.6l1.8-1.8h1l1.8,1.8h-.9l-1.8-1.5h.8l-1.8,1.5h-.9Z"/>
    <path class="st0" d="M90.8,122.7c.6,0,1.1.1,1.6.3s.8.6,1.1,1.1c.3.5.4,1.1.4,1.8v4.3h-1v-4.2c0-.8-.2-1.4-.6-1.8-.4-.4-.9-.6-1.6-.6s-1,.1-1.3.3c-.4.2-.7.5-.9.9-.2.4-.3.9-.3,1.5v3.9h-1v-4.2c0-.8-.2-1.4-.6-1.8-.4-.4-.9-.6-1.6-.6s-.9.1-1.3.3-.7.5-.9.9c-.2.4-.3.9-.3,1.5v3.9h-1v-7.5h1v2l-.2-.4c.2-.5.6-1,1.1-1.3s1.1-.5,1.8-.5,1.4.2,1.9.5c.5.4.8.9,1,1.6l-.4-.2c.2-.6.6-1.1,1.2-1.5s1.2-.6,2-.6v.4h0Z"/>
    <path class="st0" d="M100.1,130.3c-.8,0-1.5-.2-2.1-.5s-1.1-.8-1.4-1.4c-.3-.6-.5-1.2-.5-2s.2-1.4.5-2,.8-1,1.3-1.3c.6-.3,1.2-.5,1.9-.5s1.3.2,1.9.5c.5.3,1,.8,1.3,1.3s.5,1.2.5,2,0,0,0,.1v.2h-6.5v-.8h6l-.4.3c0-.5-.1-1-.3-1.4s-.5-.8-.9-1-.9-.4-1.4-.4-1,.1-1.4.4-.7.6-1,1c-.2.4-.3.9-.3,1.5v.2c0,.6.1,1.1.4,1.5s.6.8,1.1,1,1,.4,1.5.4.9,0,1.3-.2c.4-.2.7-.4,1-.7l.6.7c-.3.4-.7.7-1.2.9s-1,.3-1.6.3h-.3Z"/>
    <path class="st0" d="M110.2,130.2v-10h4.3c1.1,0,2,.2,2.6.7s.9,1.1.9,1.9-.1,1-.4,1.4-.6.7-1,.8c-.4.2-.9.3-1.4.3l.2-.3c.6,0,1.2,0,1.6.3.5.2.8.5,1.1.9s.4.9.4,1.4c0,.8-.3,1.5-.9,2-.6.5-1.6.7-2.8.7h-4.6ZM111.2,129.4h3.5c.9,0,1.5-.2,2-.4.5-.3.7-.8.7-1.4s-.2-1.1-.7-1.4-1.1-.4-2-.4h-3.6v-.9h3.3c.8,0,1.4-.2,1.9-.5.4-.3.7-.8.7-1.4s-.2-1.1-.7-1.4c-.4-.3-1.1-.4-1.9-.4h-3.2v8.2h0Z"/>
    <path class="st0" d="M125.3,130.3c-1.3,0-2.3-.4-3-1.1s-1.1-1.8-1.1-3.3v-5.7h1.1v5.7c0,1.2.3,2,.8,2.6s1.3.8,2.3.8,1.7-.3,2.3-.8c.5-.6.8-1.4.8-2.6v-5.7h1v5.7c0,1.4-.4,2.5-1.1,3.3-.7.7-1.7,1.1-3,1.1h-.1Z"/>
    <path class="st0" d="M135.7,130.3c-.7,0-1.5-.1-2.1-.4-.7-.2-1.2-.6-1.6-.9l.4-.8c.4.3.8.6,1.4.9.6.2,1.2.3,1.9.3s1.1,0,1.5-.2.7-.4.9-.6c.2-.3.3-.6.3-.9s-.1-.7-.3-.9-.5-.4-.9-.6c-.4-.1-.8-.3-1.2-.4s-.9-.2-1.3-.3-.8-.3-1.2-.5-.7-.5-.9-.8-.3-.8-.3-1.3.1-.9.4-1.4c.3-.4.7-.7,1.2-1s1.2-.4,2.1-.4,1.1,0,1.7.2c.6.2,1,.4,1.4.6l-.4.8c-.4-.3-.9-.5-1.4-.6s-.9-.2-1.4-.2-1.1,0-1.5.2-.7.4-.9.6c-.2.3-.3.6-.3.9s.1.7.3.9.5.4.9.6c.4.1.8.3,1.2.4s.9.2,1.3.3c.4.1.8.3,1.2.5s.7.5.9.8.3.7.3,1.3-.1.9-.4,1.3c-.3.4-.7.7-1.2,1s-1.2.4-2.1.4v.2h.1Z"/>
    <path class="st0" d="M144.8,130.3c-.7,0-1.5-.1-2.1-.4-.7-.2-1.2-.6-1.6-.9l.4-.8c.4.3.8.6,1.4.9.6.2,1.2.3,1.9.3s1.1,0,1.5-.2.7-.4.9-.6c.2-.3.3-.6.3-.9s-.1-.7-.3-.9-.5-.4-.9-.6c-.4-.1-.8-.3-1.2-.4s-.9-.2-1.3-.3c-.4-.1-.8-.3-1.2-.5s-.7-.5-.9-.8-.3-.8-.3-1.3.1-.9.4-1.4c.3-.4.7-.7,1.2-1s1.2-.4,2.1-.4,1.1,0,1.7.2c.6.2,1,.4,1.4.6l-.4.8c-.4-.3-.9-.5-1.4-.6s-.9-.2-1.4-.2-1.1,0-1.5.2-.7.4-.9.6c-.2.3-.3.6-.3.9s.1.7.3.9.5.4.9.6c.4.1.8.3,1.2.4s.9.2,1.3.3c.4.1.8.3,1.2.5s.7.5.9.8.3.7.3,1.3-.1.9-.4,1.3c-.3.4-.7.7-1.2,1s-1.2.4-2.1.4v.2h.1Z"/>
    <path class="st0" d="M152.3,129.3h6v.9h-7.1v-10h6.8v.9h-5.8v8.2h.1ZM152.1,124.7h5.3v.9h-5.3v-.9Z"/>
    <path class="st0" d="M163,130.2v-9.1h-3.5v-.9h8.1v.9h-3.5v9.1h-1.1Z"/>
  </g>
  <g>
    <path class="st0" d="M11.5,85.6c1.6,0,3.1.3,4.5.9,1.4.6,2.6,1.4,3.6,2.4s1.8,2.2,2.4,3.6.9,2.9.9,4.5v11.5h-2.3v-4.6c-1,1.4-2.4,2.5-4,3.3s-3.4,1.3-5.2,1.3-3.1-.3-4.5-.9c-1.4-.6-2.6-1.4-3.6-2.4s-1.8-2.2-2.4-3.6c-.6-1.4-.9-2.9-.9-4.5s.3-3.1.9-4.5,1.4-2.6,2.4-3.6,2.2-1.8,3.6-2.4c1.4-.6,2.9-.9,4.5-.9h0ZM11.5,106.3c1.3,0,2.4-.2,3.6-.7,1.1-.5,2.1-1.1,2.9-2s1.5-1.8,2-2.9c.5-1.1.7-2.3.7-3.6s-.2-2.4-.7-3.6c-.5-1.1-1.1-2.1-2-2.9-.8-.8-1.8-1.5-2.9-2-1.1-.5-2.3-.7-3.6-.7s-2.4.2-3.6.7c-1.1.5-2.1,1.1-2.9,2-.8.8-1.5,1.8-2,2.9-.5,1.1-.7,2.3-.7,3.6s.2,2.4.7,3.6c.5,1.1,1.1,2.1,2,2.9s1.8,1.5,2.9,2c1.1.5,2.3.7,3.6.7Z"/>
    <path class="st0" d="M25.7,83.8v-2.3h2.3v2.3h-2.3ZM25.7,108.6v-23h2.3v23h-2.3Z"/>
    <path class="st0" d="M42.2,85.6c1.6,0,3,.3,4.4.9,1.4.6,2.6,1.4,3.6,2.5s1.9,2.3,2.5,3.6c.6,1.4.9,2.8.9,4.4v11.5h-2.3v-11.5c0-1.3-.2-2.4-.7-3.6-.5-1.1-1.1-2.1-2-2.9-.8-.8-1.8-1.5-2.9-2s-2.3-.7-3.6-.7-2.4.2-3.6.7c-1.1.5-2.1,1.1-2.9,2-.8.8-1.5,1.8-2,2.9-.5,1.1-.7,2.3-.7,3.6v11.5h-2.3v-11.5c0-1.6.3-3,.9-4.4s1.4-2.6,2.4-3.6c1-1.1,2.2-1.9,3.6-2.5s2.9-.9,4.5-.9h.2Z"/>
    <path class="st0" d="M79.4,97.1c0,1.6-.3,3.1-.9,4.5s-1.4,2.6-2.5,3.6-2.3,1.8-3.6,2.4-2.8.9-4.4.9-3.1-.3-4.5-.9c-1.4-.6-2.6-1.4-3.6-2.4s-1.8-2.2-2.4-3.6c-.6-1.4-.9-2.9-.9-4.5v-14.9h2.3v8h6.2v2.3h-6.2v4.6c0,1.3.2,2.4.7,3.6.5,1.1,1.1,2.1,2,2.9s1.8,1.5,2.9,2,2.3.7,3.6.7,2.4-.2,3.6-.7c1.1-.5,2.1-1.1,2.9-2s1.5-1.8,2-2.9c.5-1.1.7-2.3.7-3.6h2.3-.2Z"/>
    <path class="st0" d="M82.2,83.8v-2.3h2.3v2.3h-2.3ZM82.2,108.6v-23h2.3v23h-2.3Z"/>
    <path class="st0" d="M119.4,85.6c1.6,0,3.1.3,4.5.9,1.4.6,2.6,1.4,3.6,2.4s1.8,2.2,2.4,3.6.9,2.9.9,4.5v11.5h-2.3v-11.5c0-1.3-.2-2.4-.7-3.6-.5-1.1-1.1-2.1-2-2.9-.8-.8-1.8-1.5-2.9-2-1.1-.5-2.3-.7-3.6-.7s-2.4.2-3.6.7c-1.1.5-2.1,1.1-2.9,2-.8.8-1.5,1.8-2,2.9-.5,1.1-.7,2.3-.7,3.6v11.5h-2.3v-11.5c0-1.3-.2-2.4-.7-3.6-.5-1.1-1.1-2.1-2-2.9-.8-.8-1.8-1.5-2.9-2-1.1-.5-2.3-.7-3.6-.7s-2.4.2-3.6.7c-1.1.5-2.1,1.1-2.9,2-.8.8-1.5,1.8-2,2.9-.5,1.1-.7,2.3-.7,3.6v11.5h-2.3v-11.5c0-1.6.3-3.1.9-4.5s1.4-2.6,2.5-3.6,2.3-1.8,3.6-2.4,2.8-.9,4.4-.9,2.2.2,3.3.5,2,.8,2.9,1.4c.9.6,1.7,1.3,2.4,2,.7.8,1.3,1.6,1.7,2.5.5-.9,1-1.8,1.8-2.5s1.5-1.5,2.4-2c.9-.6,1.9-1,2.9-1.4s2.1-.5,3.2-.5h.3Z"/>
    <path class="st0" d="M133.6,83.8v-2.3h2.3v2.3h-2.3ZM133.6,108.6v-23h2.3v23h-2.3Z"/>
    <path class="st0" d="M142.1,89c-.8.7-1.2,1.7-1.2,2.8s.4,2.1,1.2,2.9,1.8,1.2,2.9,1.2h10.3c.9,0,1.7.2,2.4.5s1.4.8,2,1.3c.6.6,1,1.2,1.3,2s.5,1.6.5,2.4-.2,1.7-.5,2.5-.8,1.5-1.3,2-1.2,1-2,1.4-1.6.5-2.4.5h-16.8v-2.3h16.8c1,0,2-.4,2.7-1.2.8-.8,1.2-1.8,1.2-2.9s-.4-2.1-1.2-2.8-1.7-1.1-2.7-1.1h-10.3c-.9,0-1.8-.2-2.5-.5-.8-.4-1.5-.8-2-1.4-.6-.6-1-1.3-1.4-2s-.5-1.6-.5-2.5.2-1.7.5-2.4.8-1.4,1.4-2c.6-.6,1.3-1,2-1.3s1.6-.5,2.5-.5h16.5v2.3h-16.5c-1.2,0-2.1.4-2.9,1.1Z"/>
    <path class="st0" d="M187.3,97.1c0,1.6-.3,3.1-.9,4.5-.6,1.4-1.4,2.6-2.5,3.6s-2.3,1.8-3.6,2.4-2.8.9-4.4.9-3.1-.3-4.5-.9c-1.4-.6-2.6-1.4-3.6-2.4s-1.8-2.2-2.4-3.6c-.6-1.4-.9-2.9-.9-4.5v-14.9h2.3v8h6.2v2.3h-6.2v4.6c0,1.3.2,2.4.7,3.6.5,1.1,1.1,2.1,2,2.9s1.8,1.5,2.9,2c1.1.5,2.3.7,3.6.7s2.4-.2,3.6-.7c1.1-.5,2.1-1.1,2.9-2s1.5-1.8,2-2.9c.5-1.1.7-2.3.7-3.6h2.3-.2Z"/>
    <path class="st0" d="M201.5,106.3c2,0,3.7-.5,5.2-1.6,1.5-1,2.6-2.4,3.3-4.2h2.5c-.4,1.2-1,2.2-1.7,3.2s-1.6,1.8-2.5,2.5c-1,.7-2,1.3-3.2,1.7s-2.4.6-3.6.6-3.1-.3-4.5-.9c-1.4-.6-2.6-1.4-3.6-2.4s-1.8-2.2-2.4-3.6c-.6-1.4-.9-2.9-.9-4.5s.3-3.1.9-4.5,1.4-2.6,2.4-3.6,2.2-1.8,3.6-2.4c1.4-.6,2.9-.9,4.5-.9s3.1.3,4.5.9c1.4.6,2.6,1.4,3.6,2.4s1.8,2.2,2.4,3.6.9,2.9.9,4.5v1.1h-20.7c.2,1.2.5,2.2,1.1,3.2.5,1,1.2,1.8,2,2.5s1.8,1.3,2.8,1.7,2.1.6,3.3.6h0ZM201.5,87.9c-1.2,0-2.3.2-3.3.6-1,.4-2,1-2.8,1.7s-1.5,1.6-2,2.5c-.5,1-.9,2.1-1.1,3.2h18.4c-.2-1.1-.5-2.2-1.1-3.2-.5-1-1.2-1.8-2-2.5s-1.8-1.3-2.8-1.7-2.1-.6-3.3-.6h0Z"/>
  </g>
  <g>
    <path class="st2" d="M85.7,3.8h2.7V1.1h-2.7v2.7Z"/>
    <path class="st2" d="M53.7,43c0,2.3.5,4.5,1.3,6.4.9,2.1,2.1,3.9,3.7,5.5s3.4,2.8,5.5,3.7,4.4,1.4,6.8,1.4,4.6-.5,6.7-1.4c2.1-.9,3.9-2.1,5.5-3.7,1.6-1.5,2.9-3.4,3.8-5.5s1.4-4.4,1.4-6.8V7.4h-2.7v35.2c0,2.1-.4,4-1.2,5.8-.8,1.8-1.8,3.3-3.1,4.6s-2.9,2.3-4.7,3.1c-3.5,1.5-7.8,1.5-11.3,0-1.8-.7-3.3-1.8-4.7-3.1-1.3-1.3-2.4-2.9-3.1-4.6s-1.1-3.5-1.2-5.4h-2.7Z"/>
    <path class="st2" d="M92.9,28.1v23.8c0,2.4.5,4.8,1.4,6.8.9,2.1,2.1,3.9,3.7,5.5,1.5,1.5,3.4,2.8,5.5,3.7s4.4,1.4,6.8,1.4,4.7-.5,6.8-1.4,4-2.1,5.5-3.7c1.5-1.5,2.8-3.4,3.7-5.5.9-2.1,1.4-4.4,1.4-6.8s-.5-4.7-1.4-6.8c-.9-2.1-2.1-4-3.7-5.5-1.5-1.5-3.4-2.8-5.5-3.7-2.1-.9-4.4-1.4-6.8-1.4s-5.4.6-7.9,1.9-4.5,3-6.1,5l-.7,1v-14.3h-2.7ZM110.3,66.5c-2,0-3.9-.4-5.7-1.2s-3.3-1.8-4.6-3.1-2.4-2.9-3.1-4.6c-.8-1.8-1.2-3.7-1.2-5.7s.4-3.9,1.2-5.7c.8-1.8,1.8-3.3,3.1-4.6,1.3-1.3,2.9-2.4,4.6-3.1,3.6-1.6,7.8-1.6,11.4,0,1.8.8,3.3,1.8,4.6,3.1,1.3,1.3,2.4,2.9,3.1,4.6.8,1.8,1.2,3.7,1.2,5.7s-.4,3.9-1.2,5.7-1.8,3.3-3.1,4.6-2.9,2.4-4.6,3.1c-1.8.8-3.7,1.2-5.7,1.2Z"/>
    <path class="st2" d="M131.5,56.5v2.5h1.3c.8,0,1.7-.2,2.5-.6,2.1-.9,3.4-2.5,3.8-4.8v-.2h.3c2.8-.8,4.6-3.3,4.6-6.3s-2.1-5.5-5.1-6.2h-.5v-5.8h5.7v.3c.6,2.8,2.9,5,5.7,5.2,3.1.3,5.9-1.6,6.8-4.6v-.2h.3c3.2-.6,5.3-3.1,5.3-6.4s-2.2-5.7-5.3-6.3h-.2v-.3c-.5-1.7-1.6-3-3.1-3.8-1.2-.7-2.6-.9-4.1-.7-2.7.4-4.4,2.1-5.1,5.2v.3h-5.8v-5.7h.3c1.5-.3,2.7-1,3.7-2.2.9-1,1.4-2.3,1.5-3.7.2-3.1-1.2-5.2-4.6-6.6h-.2v-.3c-.2-1.3-.7-2.4-1.5-3.2-1.8-2-4.2-2.6-6.8-1.8-2.4.7-3.9,2.5-4.4,5v.2h-.3c-3,.9-4.9,3.7-4.6,6.9.3,2.9,2.4,5.1,5.3,5.6h.3v5.8h-5.8v-.3c-.1-.6-.3-1.2-.6-1.9-1.2-2.5-3.8-3.8-6.7-3.4-2.4.3-4.4,2.1-5.1,4.5v.2h-.3c-3.1.5-5.3,3.3-5.3,6.6v1.2h2.5v-1.2c0-2.2,1.4-3.9,3.5-4.1,1.1,0,1.7-.7,1.9-1.7.3-1.5,1.6-2.8,3.2-3,1.9-.3,3.4.5,4.1,2,.2.4.3,1,.5,1.6v.2c.3,1.3.5,1.6.6,1.7h8.4c.6,0,1-.3,1.2-.5.5-.5.5-1.1.5-1.3v-8.6h-1.7c-2.1,0-3.7-1.5-3.9-3.5-.2-2.2,1.1-3.9,3.1-4.3,1.3-.3,1.5-1.1,1.6-1.8.2-1.8,1.1-2.9,2.7-3.4,1.6-.5,3,0,4.2,1.2.6.7.9,1.5,1,2.7v.8l.8.3c3.8,1.3,4,2.9,3.9,4.5,0,.9-.4,1.6-.9,2.2-.9,1-2,1.4-3.4,1.4h-1.3v10.5h10.3v-1.1c.6-3.6,2.2-4.3,3.4-4.5,1,0,1.8,0,2.6.4,1.2.6,1.9,1.7,2.1,3.3l.2,1h1.4c2.1.2,3.7,1.9,3.7,4s-1.5,3.8-3.7,4c-1,0-1.5.6-1.7,1.6-.4,2.1-2.2,3.4-4.3,3.2-1.9-.2-3.5-1.8-3.5-3.8v-1.7h-10.5v10.4h2.4c1.9.4,3.2,1.9,3.2,3.8s-1.2,3.5-3.1,4c-1,.2-1.5.8-1.7,1.9-.2,1.6-1,2.7-2.4,3.2-.5.2-1.1.4-1.6.4h-1.3,0ZM119.5,26.4h0Z"/>
  </g>
  <path class="st1" d="M105.4,152.9c-.6,0-1.2.2-1.9.3-.9.2-1.8.5-2.6,1-.8.6-1,1.5-.7,2.5.4,1.1,1.4,1.7,2.4,1.4.5-.1.9-.4,1.3-.6.9-.6,1.6-1.5,2.3-2.4,0,0,0-.1.1-.2.2,0,.3.2.5.3-.3.7-.5,1.3-.7,2-.3.9-.5,1.8-.3,2.7.2,1,1,1.6,2.1,1.7,1.1,0,1.9-.5,2.2-1.6.2-.8.1-1.6-.1-2.3-.2-.8-.6-1.6-.8-2.4.1,0,.3-.1.5-.2,0,0,.1.2.2.2.4.5.8,1,1.2,1.5.6.7,1.3,1.2,2.2,1.5,1.7.5,3-1.2,2.8-2.5-.1-.9-.7-1.4-1.4-1.7-.7-.4-1.5-.6-2.3-.7-.5,0-1-.2-1.5-.2v-.5c.6,0,1.1-.1,1.7-.3.9-.2,1.9-.4,2.7-1,.7-.5,1-1.2.8-2.1-.2-.9-.8-1.6-1.7-1.8-.6-.1-1.2,0-1.7.3-.9.5-1.5,1.2-2.1,1.9-.3.3-.5.7-.8,1-.2,0-.3-.2-.5-.3.2-.5.4-1,.6-1.4.3-.8.5-1.7.5-2.6s-.3-1.5-1-1.9c-1.5-.9-3.3,0-3.4,1.7,0,.9.1,1.8.4,2.6.2.5.4,1.1.7,1.6-.2,0-.3.2-.5.3,0,0-.1-.2-.2-.3-.4-.5-.8-1.1-1.3-1.5-.6-.6-1.3-1.2-2.1-1.4-1-.3-2,.1-2.5,1.1s-.3,2,.5,2.6c.7.6,1.6.9,2.5,1.1.6.1,1.3.2,2,.3v.5-.2h0ZM101.6,152.6c-1.1-.5-2.1-1.1-2.4-2.4-.2-.8-.1-1.6.3-2.4.5-1,1.3-1.7,2.4-1.8,1.1-.2,2,.3,3,1v-1.5c.3-1.7,1.6-2.7,3.3-2.7s3.2,1.3,3.2,3.3v.9c.4-.2.8-.5,1.2-.6,1.2-.6,2.6-.3,3.5.6,1,1,1.3,2.4.8,3.6-.4.9-1.1,1.5-1.9,1.9-.1,0-.2,0-.4.2,1.2.6,2.2,1.2,2.5,2.6.2.9,0,1.7-.5,2.5-.6.9-1.4,1.4-2.4,1.5-1,0-1.9-.3-2.8-1v1.5c-.2,1.7-1.7,2.8-3.4,2.7-1.8-.1-3-1.3-3.1-3.1v-1.1c-.1,0-.2.1-.3.2-.6.4-1.3.7-2.1.8-1.6,0-3-1.2-3.3-2.8-.2-1.4.4-2.6,1.7-3.4.2-.1.5-.3.8-.4"/>
</svg>